<mxfile host="app.diagrams.net" modified="2023-11-18T21:41:12.312Z" agent="Mozilla/5.0 (Windows NT 10.0; Win64; x64) AppleWebKit/537.36 (KHTML, like Gecko) Chrome/114.0.0.0 Safari/537.36" etag="ztVN8imRnlLL6V0CvkYu" version="22.1.3" type="onedrive">
  <diagram id="C5RBs43oDa-KdzZeNtuy" name="Page-1">
    <mxGraphModel grid="1" page="1" gridSize="10" guides="1" tooltips="1" connect="1" arrows="1" fold="1" pageScale="1" pageWidth="827" pageHeight="1169" math="0" shadow="0">
      <root>
        <mxCell id="WIyWlLk6GJQsqaUBKTNV-0" />
        <mxCell id="WIyWlLk6GJQsqaUBKTNV-1" parent="WIyWlLk6GJQsqaUBKTNV-0" />
        <mxCell id="FirxySl5WJbEBSZ_AmJa-0" value="InventoryItem&lt;br&gt;&amp;lt;&amp;lt;entity&amp;gt;&amp;gt;" style="swimlane;fontStyle=1;align=center;verticalAlign=top;childLayout=stackLayout;horizontal=1;startSize=40;horizontalStack=0;resizeParent=1;resizeParentMax=0;resizeLast=0;collapsible=1;marginBottom=0;whiteSpace=wrap;html=1;" collapsed="1" vertex="1" parent="WIyWlLk6GJQsqaUBKTNV-1">
          <mxGeometry x="250" y="330" width="120" height="40" as="geometry">
            <mxRectangle x="60" y="370" width="160" height="70" as="alternateBounds" />
          </mxGeometry>
        </mxCell>
        <mxCell id="FirxySl5WJbEBSZ_AmJa-5" value="&lt;b&gt;IInventoryItem &lt;br&gt;&amp;lt;&amp;lt;interface&amp;gt;&amp;gt;&lt;/b&gt;" style="swimlane;fontStyle=0;childLayout=stackLayout;horizontal=1;startSize=40;fillColor=none;horizontalStack=0;resizeParent=1;resizeParentMax=0;resizeLast=0;collapsible=1;marginBottom=0;whiteSpace=wrap;html=1;" vertex="1" parent="WIyWlLk6GJQsqaUBKTNV-1">
          <mxGeometry x="60" y="30" width="160" height="170" as="geometry" />
        </mxCell>
        <mxCell id="FirxySl5WJbEBSZ_AmJa-8" value="+ ItemName&lt;br style=&quot;border-color: var(--border-color);&quot;&gt;+ ItemTag&lt;br style=&quot;border-color: var(--border-color);&quot;&gt;+ X&lt;br style=&quot;border-color: var(--border-color);&quot;&gt;+ Y&lt;br style=&quot;border-color: var(--border-color);&quot;&gt;+ ItemWidth&lt;br style=&quot;border-color: var(--border-color);&quot;&gt;+ ItemHeight&lt;br style=&quot;border-color: var(--border-color);&quot;&gt;+ Price&lt;br style=&quot;border-color: var(--border-color);&quot;&gt;+ Children" style="text;strokeColor=none;fillColor=none;align=left;verticalAlign=top;spacingLeft=4;spacingRight=4;overflow=hidden;rotatable=0;points=[[0,0.5],[1,0.5]];portConstraint=eastwest;whiteSpace=wrap;html=1;" vertex="1" parent="FirxySl5WJbEBSZ_AmJa-5">
          <mxGeometry y="40" width="160" height="130" as="geometry" />
        </mxCell>
        <mxCell id="FirxySl5WJbEBSZ_AmJa-9" value="" style="endArrow=classic;html=1;rounded=0;exitX=0.5;exitY=0;exitDx=0;exitDy=0;entryX=0.5;entryY=1;entryDx=0;entryDy=0;entryPerimeter=0;" edge="1" parent="WIyWlLk6GJQsqaUBKTNV-1" source="FirxySl5WJbEBSZ_AmJa-0" target="FirxySl5WJbEBSZ_AmJa-8">
          <mxGeometry width="50" height="50" relative="1" as="geometry">
            <mxPoint x="280" y="330" as="sourcePoint" />
            <mxPoint x="330" y="280" as="targetPoint" />
          </mxGeometry>
        </mxCell>
        <mxCell id="FirxySl5WJbEBSZ_AmJa-11" value="&lt;b&gt;INotifyPropertyChanged&lt;br&gt;&amp;lt;&amp;lt;interface&amp;gt;&amp;gt;&lt;/b&gt;" style="swimlane;fontStyle=0;childLayout=stackLayout;horizontal=1;startSize=40;fillColor=none;horizontalStack=0;resizeParent=1;resizeParentMax=0;resizeLast=0;collapsible=1;marginBottom=0;whiteSpace=wrap;html=1;" vertex="1" parent="WIyWlLk6GJQsqaUBKTNV-1">
          <mxGeometry x="230" y="130" width="160" height="70" as="geometry" />
        </mxCell>
        <mxCell id="FirxySl5WJbEBSZ_AmJa-12" value="+ PropertyChangedEvent" style="text;strokeColor=none;fillColor=none;align=left;verticalAlign=top;spacingLeft=4;spacingRight=4;overflow=hidden;rotatable=0;points=[[0,0.5],[1,0.5]];portConstraint=eastwest;whiteSpace=wrap;html=1;" vertex="1" parent="FirxySl5WJbEBSZ_AmJa-11">
          <mxGeometry y="40" width="160" height="30" as="geometry" />
        </mxCell>
        <mxCell id="FirxySl5WJbEBSZ_AmJa-13" value="" style="endArrow=classic;html=1;rounded=0;entryX=0.5;entryY=1.033;entryDx=0;entryDy=0;entryPerimeter=0;exitX=0.5;exitY=0;exitDx=0;exitDy=0;" edge="1" parent="WIyWlLk6GJQsqaUBKTNV-1" source="FirxySl5WJbEBSZ_AmJa-0" target="FirxySl5WJbEBSZ_AmJa-12">
          <mxGeometry width="50" height="50" relative="1" as="geometry">
            <mxPoint x="140" y="370" as="sourcePoint" />
            <mxPoint x="330" y="280" as="targetPoint" />
          </mxGeometry>
        </mxCell>
        <mxCell id="e8hRbk2y8ZjEYZR_-lkT-0" value="Farm Visualizer&lt;br&gt;&amp;lt;&amp;lt;Boundary&amp;gt;&amp;gt;" style="swimlane;fontStyle=1;align=center;verticalAlign=top;childLayout=stackLayout;horizontal=1;startSize=36;horizontalStack=0;resizeParent=1;resizeParentMax=0;resizeLast=0;collapsible=1;marginBottom=0;whiteSpace=wrap;html=1;" vertex="1" parent="WIyWlLk6GJQsqaUBKTNV-1">
          <mxGeometry x="550" y="230" width="160" height="130" as="geometry" />
        </mxCell>
        <mxCell id="e8hRbk2y8ZjEYZR_-lkT-1" value="+ ItemsSource&lt;br&gt;+ Drone" style="text;strokeColor=none;fillColor=none;align=left;verticalAlign=top;spacingLeft=4;spacingRight=4;overflow=hidden;rotatable=0;points=[[0,0.5],[1,0.5]];portConstraint=eastwest;whiteSpace=wrap;html=1;" vertex="1" parent="e8hRbk2y8ZjEYZR_-lkT-0">
          <mxGeometry y="36" width="160" height="34" as="geometry" />
        </mxCell>
        <mxCell id="e8hRbk2y8ZjEYZR_-lkT-2" value="" style="line;strokeWidth=1;fillColor=none;align=left;verticalAlign=middle;spacingTop=-1;spacingLeft=3;spacingRight=3;rotatable=0;labelPosition=right;points=[];portConstraint=eastwest;strokeColor=inherit;" vertex="1" parent="e8hRbk2y8ZjEYZR_-lkT-0">
          <mxGeometry y="70" width="160" height="8" as="geometry" />
        </mxCell>
        <mxCell id="e8hRbk2y8ZjEYZR_-lkT-3" value="+ UpdateView()&lt;br&gt;+ FindPointForItem()&lt;br&gt;- FindPointForItem()" style="text;strokeColor=none;fillColor=none;align=left;verticalAlign=top;spacingLeft=4;spacingRight=4;overflow=hidden;rotatable=0;points=[[0,0.5],[1,0.5]];portConstraint=eastwest;whiteSpace=wrap;html=1;" vertex="1" parent="e8hRbk2y8ZjEYZR_-lkT-0">
          <mxGeometry y="78" width="160" height="52" as="geometry" />
        </mxCell>
        <mxCell id="e8hRbk2y8ZjEYZR_-lkT-4" value="UserControl&lt;br&gt;(WPF Builtin Class)" style="html=1;whiteSpace=wrap;" vertex="1" parent="WIyWlLk6GJQsqaUBKTNV-1">
          <mxGeometry x="575" y="120" width="110" height="50" as="geometry" />
        </mxCell>
        <mxCell id="e8hRbk2y8ZjEYZR_-lkT-5" value="" style="endArrow=classic;html=1;rounded=0;exitX=0.5;exitY=0;exitDx=0;exitDy=0;entryX=0.5;entryY=1;entryDx=0;entryDy=0;" edge="1" parent="WIyWlLk6GJQsqaUBKTNV-1" source="e8hRbk2y8ZjEYZR_-lkT-0" target="e8hRbk2y8ZjEYZR_-lkT-4">
          <mxGeometry width="50" height="50" relative="1" as="geometry">
            <mxPoint x="675" y="800" as="sourcePoint" />
            <mxPoint x="725" y="750" as="targetPoint" />
          </mxGeometry>
        </mxCell>
      </root>
    </mxGraphModel>
  </diagram>
</mxfile>
